<?xml version="1.0" encoding="utf-8"?>
<!-- Generator: Adobe Illustrator 15.1.0, SVG Export Plug-In . SVG Version: 6.00 Build 0)  -->
<!DOCTYPE svg PUBLIC "-//W3C//DTD SVG 1.1//EN" "http://www.w3.org/Graphics/SVG/1.1/DTD/svg11.dtd">
<svg version="1.1" id="Layer_1" xmlns="http://www.w3.org/2000/svg" xmlns:xlink="http://www.w3.org/1999/xlink" x="0px" y="0px"
	 width="89.23px" height="100px" viewBox="0 0 89.23 100" enable-background="new 0 0 89.23 100" xml:space="preserve">
<path fill="#464342" d="M16.196,68.183c-1.398,0.656-1.515,0.518-3.173,1.23c1.898,4.219,4.532,7.676,7.89,10.79
	c0.578-0.766,1.33-1.663,1.987-2.611C20.031,74.901,17.825,71.949,16.196,68.183z"/>
<path fill="#464342" d="M44.213,21.495c-18.771,0-34.042,15.27-34.042,34.041c0,3.354,0.573,6.886,1.481,9.949
	c0.961-0.427,1.881-0.604,3.26-1.188l-1.306-8.762c-0.054-3.254,0.952-8.649,2.65-12.456l14.6,40
	c-1.733-0.843-3.118-1.677-4.625-2.782c-0.73,1.015-0.974,1.19-2.079,2.646c5.1,3.763,11.132,6.162,17.822,6.579
	c0-0.84,0-2.406,0-3.466c-2.259-0.155-4.31-0.544-6.409-1.161l9.184-26.683l9.406,25.773c0.063,0.151,0.139,0.289,0.22,0.422
	c-2.61,0.918-5.382,1.49-8.26,1.669V86.5c0,1.084,0,1.935,0,3.022c17.887-0.991,32.139-15.855,32.139-33.987
	C78.254,36.765,62.982,21.495,44.213,21.495z M48.431,41.185c1.841-0.097,3.503-0.29,3.503-0.29
	c1.646-0.196,1.454-2.619-0.195-2.523c0,0-4.958,0.389-8.16,0.389c-3.006,0-8.059-0.389-8.059-0.389
	c-1.651-0.096-1.845,2.425-0.194,2.523c0,0,1.561,0.193,3.21,0.29l4.768,13.065l-6.699,20.087L25.46,41.185
	c1.844-0.097,3.502-0.29,3.502-0.29c1.648-0.196,1.454-2.619-0.195-2.523c0,0-4.957,0.389-8.157,0.389
	c-0.574,0-1.251-0.013-1.971-0.037c5.473-8.309,14.879-13.795,25.573-13.795c7.967,0,15.222,3.047,20.666,8.036
	c-0.131-0.008-0.259-0.024-0.395-0.024c-3.007,0-5.141,2.62-5.141,5.432c0,2.523,1.457,4.656,3.007,7.179
	c1.163,2.038,2.523,4.656,2.523,8.44c0,2.62-1.008,5.659-2.329,9.895L59.49,74.084L48.431,41.185z M59.6,81.989l9.347-27.027
	c1.746-4.366,2.329-7.858,2.329-10.962c0-1.126-0.076-2.172-0.207-3.147c2.389,4.359,3.747,9.362,3.747,14.683
	C74.816,66.825,68.698,76.685,59.6,81.989z"/>
<g>
	<path fill="#464342" d="M44.055,11.836V1.196L14.095,18.493l29.959,17.296V25.151c16.979,0,30.793,13.812,30.793,30.791
		c0,16.28-12.701,29.641-28.713,30.716v13.34c23.36-1.089,42.027-20.431,42.027-44.056C88.162,31.622,68.376,11.836,44.055,11.836z"
		/>
	<path fill="#464342" d="M17.346,91.01c6.901,5.272,15.396,8.559,24.628,8.99V86.659c-5.979-0.403-11.487-2.528-16.05-5.872
		L17.346,91.01z"/>
	<path fill="#464342" d="M15.897,68.367L3.361,72.931c2.468,5.887,6.178,11.131,10.842,15.33l8.876-10.566
		C23.44,78.153,17.183,71.27,15.897,68.367z"/>
	<path fill="#464342" d="M14.477,64.456c-0.597-2.065-0.989-4.216-1.137-6.434H0c0.177,3.813,0.85,7.495,1.938,10.997L14.477,64.456
		z"/>
</g>
</svg>
