<svg width="978" height="159" viewBox="0 0 978 159" fill="none" xmlns="http://www.w3.org/2000/svg">
<path fill-rule="evenodd" clip-rule="evenodd" d="M0 79.5C0 40.0116 32.0116 8 71.5 8C110.988 8 143 40.0116 143 79.5C143 92.7979 139.37 105.248 133.046 115.913C127.362 102.535 117.719 91.2443 105.588 83.5121C105.741 82.196 105.82 80.8572 105.82 79.5C105.82 60.5456 90.4544 45.18 71.5 45.18C52.7323 45.18 37.483 60.2444 37.1845 78.941C20.0073 86.9002 6.52154 101.477 0 119.399V79.5Z" fill="url(#paint0_linear_3_163)" fill-opacity="0.4"/>
<path fill-rule="evenodd" clip-rule="evenodd" d="M143 79.5C143 118.988 110.988 151 71.5 151C32.0116 151 0 118.988 0 79.5C0 66.2021 3.63023 53.7521 9.95374 43.087C15.6379 56.4653 25.2807 67.7557 37.412 75.4879C37.2588 76.804 37.18 78.1428 37.18 79.5C37.18 98.4544 52.5456 113.82 71.5 113.82C90.2677 113.82 105.517 98.7556 105.816 80.059C122.993 72.0998 136.478 57.5229 143 39.6009V79.5Z" fill="url(#paint1_linear_3_163)" fill-opacity="0.4"/>
<path fill-rule="evenodd" clip-rule="evenodd" d="M71.5 8C32.0116 8 0 40.0116 0 79.5V151H71.5C110.988 151 143 118.988 143 79.5C143 40.0116 110.988 8 71.5 8ZM71.5 45.18C52.5456 45.18 37.18 60.5456 37.18 79.5L37.18 113.82H71.5C90.4544 113.82 105.82 98.4544 105.82 79.5C105.82 60.5456 90.4544 45.18 71.5 45.18Z" fill="url(#paint2_linear_3_163)" fill-opacity="0.4"/>
<path fill-rule="evenodd" clip-rule="evenodd" d="M71.5 151C110.988 151 143 118.988 143 79.5V8H71.5C32.0116 8 0 40.0116 0 79.5C0 118.988 32.0116 151 71.5 151ZM71.5 113.82C90.4544 113.82 105.82 98.4544 105.82 79.5L105.82 45.18H71.5C52.5456 45.18 37.18 60.5456 37.18 79.5C37.18 98.4544 52.5456 113.82 71.5 113.82Z" fill="url(#paint3_linear_3_163)" fill-opacity="0.4"/>
<path fill-rule="evenodd" clip-rule="evenodd" d="M71.5 8C32.0116 8 0 40.0116 0 79.5V151H71.5C110.988 151 143 118.988 143 79.5C143 40.0116 110.988 8 71.5 8ZM71.5 45.18C52.5456 45.18 37.18 60.5456 37.18 79.5L37.18 113.82H71.5C90.4544 113.82 105.82 98.4544 105.82 79.5C105.82 60.5456 90.4544 45.18 71.5 45.18Z" fill="url(#paint4_linear_3_163)" fill-opacity="0.4"/>
<path fill-rule="evenodd" clip-rule="evenodd" d="M71.5 151C110.988 151 143 118.988 143 79.5V8H71.5C32.0116 8 0 40.0116 0 79.5C0 118.988 32.0116 151 71.5 151ZM71.5 113.82C90.4544 113.82 105.82 98.4544 105.82 79.5L105.82 45.18H71.5C52.5456 45.18 37.18 60.5456 37.18 79.5C37.18 98.4544 52.5456 113.82 71.5 113.82Z" fill="url(#paint5_linear_3_163)" fill-opacity="0.4"/>
<path fill-rule="evenodd" clip-rule="evenodd" d="M0 113.169V150.349H71.5C110.988 150.349 143 118.338 143 78.8494C143 69.4794 141.198 60.5303 137.921 52.3301C133.449 82.2448 110.445 106.102 80.9659 111.847C77.9591 112.708 74.7834 113.169 71.5 113.169H67.21H37.18H0Z" fill="url(#paint6_linear_3_163)" fill-opacity="0.4"/>
<path fill-rule="evenodd" clip-rule="evenodd" d="M143 45.8306V8.65057H71.5C32.0116 8.65057 0 40.6622 0 80.1506C0 89.5206 1.8024 98.4696 5.07941 106.67C9.55139 76.7552 32.5547 52.8976 62.0341 47.1526C65.0409 46.2916 68.2166 45.8306 71.5 45.8306H75.79H105.82H143Z" fill="url(#paint7_linear_3_163)" fill-opacity="0.4"/>
<path fill-rule="evenodd" clip-rule="evenodd" d="M0 113.169V151H71V150.998C71.1665 150.999 71.3332 151 71.5 151C110.988 151 143 118.764 143 78.9999C143 69.568 141.199 60.5597 137.924 52.3047C133.462 82.2312 110.454 106.101 80.966 111.847C77.9592 112.708 74.7834 113.169 71.5 113.169H37.18L0 113.169Z" fill="url(#paint8_linear_3_163)" fill-opacity="0.4"/>
<path fill-rule="evenodd" clip-rule="evenodd" d="M143 45.4268V7.99998L71.5 8C32.0116 8 0 40.2241 0 79.9746C0 89.4068 1.80238 98.4152 5.07938 106.67C9.55139 76.5566 32.5548 52.5406 62.0342 46.7576C65.041 45.8909 68.2166 45.4268 71.5 45.4268L71.5326 45.4268H75.7323C75.7515 45.4268 75.7708 45.4268 75.79 45.4268H143Z" fill="url(#paint9_linear_3_163)" fill-opacity="0.4"/>
<path d="M212.184 33.12L225.88 89.184L239.704 33.12H259.8L273.752 89.184L287.32 33.12H313.048L288.088 124H262.616L249.816 74.72L236.888 124H211.544L186.456 33.12H212.184ZM356.478 33.12C363.987 33.12 370.515 34.4 376.062 36.96C381.609 39.4347 385.833 43.0187 388.734 47.712C391.721 52.4053 393.214 57.9093 393.214 64.224C393.214 70.5387 391.721 76.0427 388.734 80.736C385.833 85.344 381.609 88.928 376.062 91.488C370.515 93.9627 363.987 95.2 356.478 95.2H342.654V124H317.566V33.12H356.478ZM354.558 75.104C358.569 75.104 361.726 74.1653 364.03 72.288C366.419 70.4107 367.614 67.7227 367.614 64.224C367.614 60.7253 366.419 58.0373 364.03 56.16C361.726 54.1973 358.569 53.216 354.558 53.216H342.654V75.104H354.558ZM465.843 33.12C472.158 33.12 477.875 34.1867 482.995 36.32C488.115 38.368 492.168 41.44 495.155 45.536C498.142 49.5467 499.635 54.4533 499.635 60.256C499.635 64.608 498.824 68.4053 497.203 71.648C495.667 74.8053 493.363 77.3653 490.291 79.328C487.304 81.2907 483.635 82.656 479.283 83.424L478.515 82.528C485 82.528 489.822 83.7653 492.979 86.24C496.222 88.7147 498.014 92.768 498.355 98.4L500.403 124H475.187L473.779 103.008C473.523 99.2533 472.414 96.6507 470.451 95.2C468.574 93.7493 465.416 93.024 460.979 93.024H447.539V124H422.451V33.12H465.843ZM461.235 72.928C465.416 72.928 468.574 72.1173 470.707 70.496C472.926 68.7893 474.035 66.3573 474.035 63.2C474.035 59.9573 472.926 57.4827 470.707 55.776C468.574 54.0693 465.416 53.216 461.235 53.216H447.539V72.928H461.235ZM539.62 125.536C532.196 125.536 525.668 124.085 520.036 121.184C514.404 118.197 510.009 114.059 506.852 108.768C503.78 103.392 502.244 97.1627 502.244 90.08C502.244 82.9973 503.78 76.8107 506.852 71.52C510.009 66.144 514.404 62.0053 520.036 59.104C525.668 56.1173 532.196 54.624 539.62 54.624C547.044 54.624 553.572 56.1173 559.204 59.104C564.836 62.0053 569.188 66.144 572.26 71.52C575.417 76.8107 576.996 82.9973 576.996 90.08C576.996 97.1627 575.417 103.392 572.26 108.768C569.188 114.059 564.836 118.197 559.204 121.184C553.572 124.085 547.044 125.536 539.62 125.536ZM539.62 107.744C543.46 107.744 546.404 106.251 548.452 103.264C550.5 100.192 551.524 95.7973 551.524 90.08C551.524 84.3627 550.5 80.0107 548.452 77.024C546.404 73.952 543.46 72.416 539.62 72.416C535.78 72.416 532.836 73.952 530.788 77.024C528.74 80.0107 527.716 84.3627 527.716 90.08C527.716 95.7973 528.74 100.192 530.788 103.264C532.836 106.251 535.78 107.744 539.62 107.744ZM608.15 33.12V100.32C608.15 102.197 608.662 103.691 609.686 104.8C610.795 105.909 612.289 106.464 614.166 106.464H618.262V124H605.974C598.977 124 593.43 122.037 589.334 118.112C585.323 114.187 583.318 108.597 583.318 101.344V33.12H608.15ZM648.905 33.12V100.32C648.905 102.197 649.417 103.691 650.441 104.8C651.55 105.909 653.044 106.464 654.921 106.464H659.017V124H646.729C639.732 124 634.185 122.037 630.089 118.112C626.078 114.187 624.073 108.597 624.073 101.344V33.12H648.905ZM689.66 33.12V65.888C691.793 62.304 694.567 59.5307 697.98 57.568C701.393 55.6053 705.191 54.624 709.372 54.624C715.175 54.624 720.252 56.0747 724.604 58.976C728.956 61.8773 732.284 66.016 734.588 71.392C736.892 76.6827 738.044 82.912 738.044 90.08C738.044 97.248 736.892 103.52 734.588 108.896C732.284 114.187 728.956 118.283 724.604 121.184C720.252 124.085 715.175 125.536 709.372 125.536C704.935 125.536 700.967 124.555 697.468 122.592C694.055 120.544 691.367 117.728 689.404 114.144L689.02 124H664.828V33.12H689.66ZM688.508 90.08C688.508 93.664 688.977 96.8213 689.916 99.552C690.94 102.197 692.348 104.288 694.14 105.824C696.017 107.275 698.193 108 700.668 108C704.167 108 707.025 106.336 709.244 103.008C711.548 99.68 712.7 95.3707 712.7 90.08C712.7 84.6187 711.591 80.2667 709.372 77.024C707.239 73.696 704.337 72.032 700.668 72.032C698.193 72.032 696.017 72.8 694.14 74.336C692.348 75.7867 690.94 77.8773 689.916 80.608C688.977 83.2533 688.508 86.4107 688.508 90.08ZM743.666 77.92C744.946 70.1547 748.402 64.352 754.034 60.512C759.751 56.5867 767.645 54.624 777.714 54.624C789.063 54.624 797.511 57.1413 803.058 62.176C808.69 67.1253 811.506 74.6773 811.506 84.832V102.24C811.506 104.715 811.89 106.379 812.658 107.232C813.426 108.085 814.493 108.512 815.858 108.512H818.162V124L815.602 124.256L814.706 124.384C809.927 125.067 805.191 124.896 800.498 123.872C795.89 122.763 792.989 119.392 791.794 113.76C789.917 117.6 786.93 120.544 782.834 122.592C778.738 124.555 773.405 125.536 766.834 125.536C759.751 125.536 753.906 123.787 749.298 120.288C744.775 116.704 742.514 111.968 742.514 106.08C742.514 102.24 743.453 98.9973 745.33 96.352C747.293 93.7067 750.151 91.5307 753.906 89.824C757.661 88.032 762.525 86.5387 768.498 85.344L786.29 81.76C786.29 77.2373 785.565 73.952 784.114 71.904C782.749 69.7707 780.573 68.704 777.586 68.704C774.941 68.704 772.85 69.5573 771.314 71.264C769.778 72.8853 768.754 75.4027 768.242 78.816L743.666 77.92ZM767.986 104.928C767.986 106.72 768.669 108.213 770.034 109.408C771.485 110.517 773.447 111.072 775.922 111.072C778.141 111.072 780.018 110.517 781.554 109.408C783.175 108.213 784.413 106.507 785.266 104.288C786.205 101.984 786.674 99.2533 786.674 96.096V95.2L778.61 96.736C778.183 96.8213 777.714 96.9067 777.202 96.992C775.154 97.4187 773.447 97.9733 772.082 98.656C770.802 99.2533 769.778 100.064 769.01 101.088C768.327 102.112 767.986 103.392 767.986 104.928ZM868.028 84.32C867.516 80.48 866.279 77.536 864.316 75.488C862.439 73.44 860.007 72.416 857.02 72.416C853.18 72.416 850.236 73.952 848.188 77.024C846.14 80.0107 845.116 84.3627 845.116 90.08C845.116 95.7973 846.14 100.192 848.188 103.264C850.236 106.251 853.18 107.744 857.02 107.744C860.177 107.744 862.695 106.763 864.572 104.8C866.535 102.752 867.729 99.68 868.156 95.584L893.628 96.352C893.116 102.24 891.239 107.403 887.996 111.84C884.839 116.192 880.572 119.563 875.196 121.952C869.905 124.341 863.847 125.536 857.02 125.536C849.596 125.536 843.068 124.085 837.436 121.184C831.804 118.197 827.409 114.059 824.252 108.768C821.18 103.392 819.644 97.1627 819.644 90.08C819.644 82.9973 821.18 76.8107 824.252 71.52C827.409 66.144 831.804 62.0053 837.436 59.104C843.068 56.1173 849.596 54.624 857.02 54.624C863.676 54.624 869.649 55.776 874.94 58.08C880.231 60.384 884.455 63.712 887.612 68.064C890.855 72.3307 892.775 77.408 893.372 83.296L868.028 84.32ZM921.925 33.12V77.792L942.405 56.16H970.693L944.197 83.168L971.845 124H945.733L928.709 96.48L921.925 103.776V124H897.093V33.12H921.925Z" fill="#1D2A39"/>
<defs>
<linearGradient id="paint0_linear_3_163" x1="71.5" y1="8" x2="71.5" y2="151" gradientUnits="userSpaceOnUse">
<stop stop-color="#FF61EF"/>
<stop offset="0.598958" stop-color="#A972F9" stop-opacity="0.772396"/>
<stop offset="1" stop-color="#707EFF" stop-opacity="0.62"/>
</linearGradient>
<linearGradient id="paint1_linear_3_163" x1="71.5" y1="151" x2="71.5" y2="8" gradientUnits="userSpaceOnUse">
<stop stop-color="#FF61EF"/>
<stop offset="0.598958" stop-color="#A972F9" stop-opacity="0.772396"/>
<stop offset="1" stop-color="#707EFF" stop-opacity="0.62"/>
</linearGradient>
<linearGradient id="paint2_linear_3_163" x1="71.5" y1="8" x2="71.5" y2="151" gradientUnits="userSpaceOnUse">
<stop stop-color="#FF61EF"/>
<stop offset="0.598958" stop-color="#A972F9" stop-opacity="0.772396"/>
<stop offset="1" stop-color="#707EFF" stop-opacity="0.62"/>
</linearGradient>
<linearGradient id="paint3_linear_3_163" x1="71.5" y1="151" x2="71.5" y2="8" gradientUnits="userSpaceOnUse">
<stop stop-color="#FF61EF"/>
<stop offset="0.598958" stop-color="#A972F9" stop-opacity="0.772396"/>
<stop offset="1" stop-color="#707EFF" stop-opacity="0.62"/>
</linearGradient>
<linearGradient id="paint4_linear_3_163" x1="71.5" y1="8" x2="71.5" y2="151" gradientUnits="userSpaceOnUse">
<stop stop-color="#FF61EF"/>
<stop offset="0.598958" stop-color="#A972F9" stop-opacity="0.772396"/>
<stop offset="1" stop-color="#707EFF" stop-opacity="0.62"/>
</linearGradient>
<linearGradient id="paint5_linear_3_163" x1="71.5" y1="151" x2="71.5" y2="8" gradientUnits="userSpaceOnUse">
<stop stop-color="#FF61EF"/>
<stop offset="0.598958" stop-color="#A972F9" stop-opacity="0.772396"/>
<stop offset="1" stop-color="#707EFF" stop-opacity="0.62"/>
</linearGradient>
<linearGradient id="paint6_linear_3_163" x1="133.705" y1="89.5101" x2="71.5" y2="150.349" gradientUnits="userSpaceOnUse">
<stop stop-color="#FF61EF"/>
<stop offset="0.598958" stop-color="#A972F9" stop-opacity="0.772396"/>
<stop offset="1" stop-color="#707EFF" stop-opacity="0.62"/>
</linearGradient>
<linearGradient id="paint7_linear_3_163" x1="9.295" y1="69.4899" x2="71.5" y2="8.65065" gradientUnits="userSpaceOnUse">
<stop stop-color="#FF61EF"/>
<stop offset="0.598958" stop-color="#A972F9" stop-opacity="0.772396"/>
<stop offset="1" stop-color="#707EFF" stop-opacity="0.62"/>
</linearGradient>
<linearGradient id="paint8_linear_3_163" x1="133.705" y1="89.5099" x2="71.5" y2="150.349" gradientUnits="userSpaceOnUse">
<stop stop-color="#FF61EF"/>
<stop offset="0.598958" stop-color="#A972F9" stop-opacity="0.772396"/>
<stop offset="1" stop-color="#707EFF" stop-opacity="0.62"/>
</linearGradient>
<linearGradient id="paint9_linear_3_163" x1="9.29501" y1="69.2432" x2="71.9023" y2="8.41414" gradientUnits="userSpaceOnUse">
<stop stop-color="#FF61EF"/>
<stop offset="0.598958" stop-color="#A972F9" stop-opacity="0.772396"/>
<stop offset="1" stop-color="#707EFF" stop-opacity="0.62"/>
</linearGradient>
</defs>
</svg>
